<?xml version="1.0" encoding="UTF-8"?>
<svg version="1.1" xmlns="http://www.w3.org/2000/svg" width="100" height="100">
<path d="M0 0 C2.8203125 -0.29296875 2.8203125 -0.29296875 6.125 -0.1875 C7.76855469 -0.14689453 7.76855469 -0.14689453 9.4453125 -0.10546875 C10.70988281 -0.05326172 10.70988281 -0.05326172 12 0 C15 6.5 15 6.5 15 11 C15.886875 11.144375 16.77375 11.28875 17.6875 11.4375 C21 12 21 12 23.5625 12.75 C26.12672003 13.26270036 26.12672003 13.26270036 28.4375 11.5 C31 10 31 10 34 9.9375 C38.13904791 11.4034128 39.69713874 13.30146525 42 17 C41.92187766 20.98423915 41.2189585 22.67156226 39 26 C39.27802838 28.39388923 39.27802838 28.39388923 40 31 C40.33944795 32.99897128 40.67421616 34.99875639 41 37 C43.97851562 37.29296875 43.97851562 37.29296875 46.95703125 37.5859375 C49 38 49 38 52 40 C52.3984375 42.49609375 52.3984375 42.49609375 52.375 45.4375 C52.38660156 46.88962891 52.38660156 46.88962891 52.3984375 48.37109375 C52 51 52 51 50.73828125 52.8046875 C47.701275 54.89305584 44.6205539 54.70323329 41 55 C40.855625 55.886875 40.71125 56.77375 40.5625 57.6875 C40 61 40 61 39.25 63.5625 C38.73729964 66.12672003 38.73729964 66.12672003 40.5 68.4375 C42 71 42 71 42.0625 74 C40.5965872 78.13904791 38.69853475 79.69713874 35 82 C31.01576085 81.92187766 29.32843774 81.2189585 26 79 C23.60611077 79.27802838 23.60611077 79.27802838 21 80 C19.00102872 80.33944795 17.00124361 80.67421616 15 81 C14.896875 82.258125 14.79375 83.51625 14.6875 84.8125 C14.48449256 87.28919074 14.21501683 88.68313309 12.8125 90.75 C10.25715596 92.51230623 8.38103091 92.29580109 5.3125 92.1875 C4.31863281 92.16042969 3.32476562 92.13335937 2.30078125 92.10546875 C1.54152344 92.07066406 0.78226563 92.03585938 0 92 C-3 85.5 -3 85.5 -3 81 C-3.886875 80.855625 -4.77375 80.71125 -5.6875 80.5625 C-9 80 -9 80 -11.5625 79.25 C-14.12672003 78.73729964 -14.12672003 78.73729964 -16.4375 80.5 C-19 82 -19 82 -22 82.0625 C-26.13904791 80.5965872 -27.69713874 78.69853475 -30 75 C-29.92187766 71.01576085 -29.2189585 69.32843774 -27 66 C-27.27802838 63.60611077 -27.27802838 63.60611077 -28 61 C-28.33944795 59.00102872 -28.67421616 57.00124361 -29 55 C-30.98567708 54.8046875 -32.97135417 54.609375 -34.95703125 54.4140625 C-37 54 -37 54 -40 52 C-40.29296875 49.1796875 -40.29296875 49.1796875 -40.1875 45.875 C-40.16042969 44.77929688 -40.13335937 43.68359375 -40.10546875 42.5546875 C-40.07066406 41.71164063 -40.03585938 40.86859375 -40 40 C-33.5 37 -33.5 37 -29 37 C-28.855625 36.113125 -28.71125 35.22625 -28.5625 34.3125 C-28 31 -28 31 -27.25 28.4375 C-26.73729964 25.87327997 -26.73729964 25.87327997 -28.5 23.5625 C-30 21 -30 21 -30.0625 18 C-28.5965872 13.86095209 -26.69853475 12.30286126 -23 10 C-19.01576085 10.07812234 -17.32843774 10.7810415 -14 13 C-11.60611077 12.72197162 -11.60611077 12.72197162 -9 12 C-7.00102872 11.66055205 -5.00124361 11.32578384 -3 11 C-2.814375 9.1128125 -2.814375 9.1128125 -2.625 7.1875 C-2.30131941 3.89674737 -1.93395001 2.90092502 0 0 Z M3 4 C2.82726563 4.67546875 2.65453125 5.3509375 2.4765625 6.046875 C0.2389889 13.14963156 0.2389889 13.14963156 -3.31640625 15.58984375 C-7.92127125 17.51825965 -11.10963799 18.45824633 -16 17 C-16.99 16.34 -17.98 15.68 -19 15 C-21.96076291 15.35888035 -22.84658021 15.84658021 -25 18 C-24.64700993 21.44165321 -23.95418308 23.06872538 -22 26 C-22.125 28.125 -22.125 28.125 -23 31 C-23.21398438 31.7321875 -23.42796875 32.464375 -23.6484375 33.21875 C-25.8182826 39.35005543 -25.8182826 39.35005543 -29.265625 41.24609375 C-31.50458994 41.98185424 -33.68420994 42.56950057 -36 43 C-36 44.98 -36 46.96 -36 49 C-35.32453125 49.17273437 -34.6490625 49.34546875 -33.953125 49.5234375 C-26.85036844 51.7610111 -26.85036844 51.7610111 -24.41015625 55.31640625 C-22.48174035 59.92127125 -21.54175367 63.10963799 -23 68 C-23.66 68.99 -24.32 69.98 -25 71 C-24.64111965 73.96076291 -24.15341979 74.84658021 -22 77 C-18.55834679 76.64700993 -16.93127462 75.95418308 -14 74 C-11.875 74.125 -11.875 74.125 -9 75 C-8.2678125 75.21398437 -7.535625 75.42796875 -6.78125 75.6484375 C-0.64994457 77.8182826 -0.64994457 77.8182826 1.24609375 81.265625 C1.98185424 83.50458994 2.56950057 85.68420994 3 88 C4.98 88 6.96 88 9 88 C9.17273437 87.32453125 9.34546875 86.6490625 9.5234375 85.953125 C11.7610111 78.85036844 11.7610111 78.85036844 15.31640625 76.41015625 C19.92127125 74.48174035 23.10963799 73.54175367 28 75 C29.485 75.99 29.485 75.99 31 77 C33.96076291 76.64111965 34.84658021 76.15341979 37 74 C36.64700993 70.55834679 35.95418308 68.93127462 34 66 C34.125 63.875 34.125 63.875 35 61 C35.21398437 60.2678125 35.42796875 59.535625 35.6484375 58.78125 C37.8182826 52.64994457 37.8182826 52.64994457 41.265625 50.75390625 C43.50458994 50.01814576 45.68420994 49.43049943 48 49 C48 47.02 48 45.04 48 43 C47.32453125 42.82726563 46.6490625 42.65453125 45.953125 42.4765625 C38.85036844 40.2389889 38.85036844 40.2389889 36.41015625 36.68359375 C34.48174035 32.07872875 33.54175367 28.89036201 35 24 C35.99 22.515 35.99 22.515 37 21 C36.64111965 18.03923709 36.15341979 17.15341979 34 15 C30.55834679 15.35299007 28.93127462 16.04581692 26 18 C23.875 17.875 23.875 17.875 21 17 C19.90171875 16.67902344 19.90171875 16.67902344 18.78125 16.3515625 C12.64994457 14.1817174 12.64994457 14.1817174 10.75390625 10.734375 C10.01814576 8.49541006 9.43049943 6.31579006 9 4 C7.02 4 5.04 4 3 4 Z " fill="#000000" transform="translate(44,4)"/>
<path d="M0 0 C12.58493744 -0.1726592 12.58493744 -0.1726592 17.3125 0.5 C21.03153074 1.11777633 21.03153074 1.11777633 24.9375 0.8125 C30.66908313 0.76745809 35.66279306 2.88835513 39.90234375 6.71875 C44 11.26955882 44 11.26955882 44 15 C44.5878125 13.7625 44.5878125 13.7625 45.1875 12.5 C45.785625 11.675 46.38375 10.85 47 10 C49.6875 9.6875 49.6875 9.6875 52 10 C51.125 13.875 51.125 13.875 50 15 C50.63808594 15.18175781 51.27617188 15.36351562 51.93359375 15.55078125 C52.75988281 15.80214844 53.58617187 16.05351563 54.4375 16.3125 C55.26121094 16.55613281 56.08492187 16.79976562 56.93359375 17.05078125 C57.61550781 17.36402344 58.29742187 17.67726563 59 18 C60 21 60 21 59.25 22.90234375 C56.12250284 27.99430006 53.41446641 30.45201581 48 33 C48.66 33.66 49.32 34.32 50 35 C50 36.32 50 37.64 50 39 C46.22360282 38.48967606 44.55277419 37.79233071 42 35 C41.34644531 35.61488281 41.34644531 35.61488281 40.6796875 36.2421875 C35.26253267 41.14342282 30.70655355 43.55439562 23.14453125 43.30859375 C16.88840044 42.40834906 11.22480111 39.45166407 7.28515625 34.48046875 C4.33180381 28.78022924 3.27510429 22.24801101 2 16 C1.34 16 0.68 16 0 16 C0.17122684 25.05945664 1.15406653 33.2247364 7.875 39.84765625 C13.90882131 44.36193065 20.68994222 45.71198364 28 47 C27.67 48.32 27.34 49.64 27 51 C18.07234237 50.81329994 10.7634459 49.1982913 3.92578125 43.171875 C-3.20336969 35.57940398 -4.51028776 28.76834127 -4.30078125 18.48046875 C-3.95407089 14.46853464 -3.10995656 10.9635021 -1.75390625 7.18359375 C-0.93497316 4.811658 -0.44650389 2.46660889 0 0 Z M4 4 C3.71048348 9.59731932 3.81547151 13.1683016 7 18 C11.03388561 22.26439336 14.37733421 22.61880232 20 23 C19.67 21.35 19.34 19.7 19 18 C20.32 18 21.64 18 23 18 C21.48504143 12.23576739 20.37140099 8.2228406 15 5 C12.24921116 4.08307039 10.64051087 3.89113917 7.8125 3.9375 C6.554375 3.958125 5.29625 3.97875 4 4 Z M23 5 C23.20496094 5.51046875 23.40992187 6.0209375 23.62109375 6.546875 C25.69269173 12.13721597 26.43171446 17.25382221 26.69140625 23.203125 C27.0128109 26.11610892 27.79267705 28.34291977 29 31 C32.33391285 28.77739144 32.88663988 27.5576659 34.5 24 C36.66666667 19.22222222 36.66666667 19.22222222 40 17 C39.78320856 13.20614979 39.0563797 12.0563797 36.3125 9.3125 C32.10303646 6.1024055 28.29521165 5 23 5 Z M39 22 C42.28976808 23.09658936 43.71303767 22.79953138 47 22 C46.67 22.99 46.34 23.98 46 25 C42.4375 26.6875 42.4375 26.6875 39 28 C39 28.33 39 28.66 39 29 C44.31553629 29.64007081 44.31553629 29.64007081 49.08984375 27.6640625 C50.80497879 26.16989578 52.43160073 24.64681923 54 23 C53.67 22.01 53.34 21.02 53 20 C47.16605611 18.89356236 44.23420787 18.72862008 39 22 Z M9 25 C9.91027689 30.44345582 11.87201969 33.38963653 16.3125 36.75 C19.5362069 38.24939856 22.47770341 38.65467681 26 39 C25.88541307 37.56163249 25.75790884 36.12429034 25.625 34.6875 C25.55539063 33.88699219 25.48578125 33.08648437 25.4140625 32.26171875 C25.10435574 29.72775559 25.10435574 29.72775559 23 27 C19.66149945 26.1928418 19.66149945 26.1928418 15.875 25.8125 C14.59367187 25.65394531 13.31234375 25.49539062 11.9921875 25.33203125 C11.00476563 25.22246094 10.01734375 25.11289062 9 25 Z M34 32 C32.3553326 34.46326712 32.3553326 34.46326712 31 37 C32.65 36.34 34.3 35.68 36 35 C36 34.01 36 33.02 36 32 C35.34 32 34.68 32 34 32 Z " fill="#000000" transform="translate(25,28)"/>
<path d="M0 0 C0.39832031 0.51175781 0.79664063 1.02351563 1.20703125 1.55078125 C-1.28802837 4.04584087 -2.46625763 3.91026501 -5.91796875 4.17578125 C-6.82804687 4.25054688 -7.738125 4.3253125 -8.67578125 4.40234375 C-9.72378906 4.47582031 -9.72378906 4.47582031 -10.79296875 4.55078125 C-10.79296875 3.23078125 -10.79296875 1.91078125 -10.79296875 0.55078125 C-9.36150497 0.1336461 -7.92237989 -0.25726845 -6.48046875 -0.63671875 C-5.67996094 -0.85714844 -4.87945312 -1.07757812 -4.0546875 -1.3046875 C-1.79296875 -1.44921875 -1.79296875 -1.44921875 0 0 Z " fill="#000000" transform="translate(48.79296875,22.44921875)"/>
<path d="M0 0 C3.37462715 0.54723683 5.08235 1.0549 8 3 C8 4.32 8 5.64 8 7 C3.68607774 6.5206753 1.83430453 5.2542015 -1 2 C-0.67 1.34 -0.34 0.68 0 0 Z " fill="#000000" transform="translate(36,39)"/>
<path d="M0 0 C2.0625 0.4375 2.0625 0.4375 4 1 C4.33 2.65 4.66 4.3 5 6 C3.68 6.33 2.36 6.66 1 7 C0.34 5.02 -0.32 3.04 -1 1 C-0.67 0.67 -0.34 0.34 0 0 Z " fill="#000000" transform="translate(57,71)"/>
<path d="M0 0 C0.99 0 1.98 0 3 0 C5 3 5 3 4.625 5.1875 C4.41875 5.785625 4.2125 6.38375 4 7 C2.0625 6.25 2.0625 6.25 0 5 C-0.8125 2.9375 -0.8125 2.9375 -1 1 C-0.67 0.67 -0.34 0.34 0 0 Z " fill="#000000" transform="translate(64,67)"/>
<path d="M0 0 C2.0625 0.4375 2.0625 0.4375 4 1 C4 1.99 4 2.98 4 4 C1 6 1 6 -1.1875 5.625 C-1.785625 5.41875 -2.38375 5.2125 -3 5 C-1.125 1.125 -1.125 1.125 0 0 Z " fill="#000000" transform="translate(69,30)"/>
<path d="M0 0 C0.99 0 1.98 0 3 0 C2.67 1.98 2.34 3.96 2 6 C0.68 6.33 -0.64 6.66 -2 7 C-2.125 4.625 -2.125 4.625 -2 2 C-1.34 1.34 -0.68 0.68 0 0 Z " fill="#000000" transform="translate(63,24)"/>
<path d="M0 0 C1.32 0 2.64 0 4 0 C3.67 2.31 3.34 4.62 3 7 C1.68 6.67 0.36 6.34 -1 6 C-0.67 4.02 -0.34 2.04 0 0 Z " fill="#000000" transform="translate(54,21)"/>
</svg>
